<svg xmlns="http://www.w3.org/2000/svg" viewBox="0 0 186.84 32.46"><defs><style>.a{fill:#fff;}</style></defs><title>logo</title><path class="a" d="M329.42,225.85a20.13,20.13,0,0,1,1-6.6,14.08,14.08,0,0,1,3-5.13,13.76,13.76,0,0,1,4.86-3.33,17,17,0,0,1,6.6-1.2q1.26,0,2.4.06a20.91,20.91,0,0,1,2.25.24,17,17,0,0,1,2.28.54q1.17.36,2.61.9a13.84,13.84,0,0,1-.36,4,17,17,0,0,1-1.5,3.93q-1-.36-1.83-.57t-1.53-.33a11.65,11.65,0,0,0-1.41-.15c-.46,0-1,0-1.47,0a6.84,6.84,0,0,0-4.77,1.71q-1.89,1.71-1.89,5.91a10.29,10.29,0,0,0,.57,3.69,5.94,5.94,0,0,0,1.5,2.31,5.47,5.47,0,0,0,2.16,1.2,9.25,9.25,0,0,0,2.61.36,13.5,13.5,0,0,0,3-.3,24.22,24.22,0,0,0,3-1,14.62,14.62,0,0,1,1.62,3.63,16.06,16.06,0,0,1,.6,4.59,21.82,21.82,0,0,1-5,1.38,35,35,0,0,1-4.56.3,18.67,18.67,0,0,1-6.78-1.14,13.31,13.31,0,0,1-4.95-3.27,13.9,13.9,0,0,1-3-5.1A20.26,20.26,0,0,1,329.42,225.85Z" transform="translate(-329.42 -209.59)"/><path class="a" d="M357.68,226a21.45,21.45,0,0,1,1-6.69,14.22,14.22,0,0,1,2.94-5.19,12.9,12.9,0,0,1,4.83-3.33,17.6,17.6,0,0,1,6.66-1.17,17.81,17.81,0,0,1,6.72,1.17,13,13,0,0,1,4.83,3.33,14.37,14.37,0,0,1,2.94,5.19,21.45,21.45,0,0,1,1,6.69,20.68,20.68,0,0,1-1,6.57,14.14,14.14,0,0,1-2.94,5.1,12.85,12.85,0,0,1-4.83,3.27,18.23,18.23,0,0,1-6.72,1.14,18,18,0,0,1-6.66-1.14,12.77,12.77,0,0,1-4.83-3.27,14,14,0,0,1-2.94-5.1A20.68,20.68,0,0,1,357.68,226Zm20.64,0a11.05,11.05,0,0,0-1.29-5.88,4.34,4.34,0,0,0-3.93-2,4.25,4.25,0,0,0-3.9,2,11.27,11.27,0,0,0-1.26,5.88,11.13,11.13,0,0,0,1.26,5.82,4.25,4.25,0,0,0,3.9,2,4.34,4.34,0,0,0,3.93-2A10.92,10.92,0,0,0,378.32,226Z" transform="translate(-329.42 -209.59)"/><path class="a" d="M421,239.89c-.69.24-1.5.48-2.44.72s-1.94.47-3,.69-2.15.39-3.27.51A30.78,30.78,0,0,1,409,242a34.91,34.91,0,0,1-5.88-.48,12.08,12.08,0,0,1-5-1.95,10,10,0,0,1-3.4-4.26,18.6,18.6,0,0,1-1.25-7.47V210.31a19.8,19.8,0,0,1,2.6-.42c.86-.08,1.69-.12,2.5-.12s1.57,0,2.46.12a18.74,18.74,0,0,1,2.58.42V227c0,2.4.39,4,1.19,4.92a4.72,4.72,0,0,0,3.67,1.32,15.46,15.46,0,0,0,1.56-.06,6.34,6.34,0,0,0,.77-.12V210.31a20.22,20.22,0,0,1,2.61-.42c.86-.08,1.69-.12,2.5-.12s1.57,0,2.46.12a18.5,18.5,0,0,1,2.58.42Z" transform="translate(-329.42 -209.59)"/><path class="a" d="M427.69,210.43q2.76-.42,5.67-.63t5.61-.21a28.41,28.41,0,0,1,5.4.51,13.36,13.36,0,0,1,4.74,1.86,10,10,0,0,1,3.39,3.72,15,15,0,0,1,.12,11.91,10.5,10.5,0,0,1-3.09,3.78,12.32,12.32,0,0,1-4.35,2.07,19.64,19.64,0,0,1-4.95.63q-1,0-1.74-.06a5.28,5.28,0,0,1-.9-.12v7.38a24.37,24.37,0,0,1-2.79.39q-1.23.09-2.19.09t-2.19-.09a24.77,24.77,0,0,1-2.73-.39Zm9.9,15.9a5.94,5.94,0,0,0,.75.09l.75,0a5.45,5.45,0,0,0,3.45-1,4.26,4.26,0,0,0,1.35-3.57,4.17,4.17,0,0,0-1.35-3.33,4.91,4.91,0,0,0-3.33-1.17h-.69a7.5,7.5,0,0,0-.93.06Z" transform="translate(-329.42 -209.59)"/><path class="a" d="M457.15,226a21.45,21.45,0,0,1,1-6.69,14.22,14.22,0,0,1,2.94-5.19,13,13,0,0,1,4.83-3.33,19.71,19.71,0,0,1,13.38,0,13,13,0,0,1,4.83,3.33,14.22,14.22,0,0,1,2.94,5.19,21.45,21.45,0,0,1,1,6.69,20.68,20.68,0,0,1-1,6.57,14,14,0,0,1-2.94,5.1,12.85,12.85,0,0,1-4.83,3.27,20.2,20.2,0,0,1-13.38,0,12.85,12.85,0,0,1-4.83-3.27,14,14,0,0,1-2.94-5.1A20.68,20.68,0,0,1,457.15,226Zm20.64,0a11.05,11.05,0,0,0-1.29-5.88,4.33,4.33,0,0,0-3.93-2,4.26,4.26,0,0,0-3.9,2,11.27,11.27,0,0,0-1.26,5.88,11.13,11.13,0,0,0,1.26,5.82,4.26,4.26,0,0,0,3.9,2,4.33,4.33,0,0,0,3.93-2A10.92,10.92,0,0,0,477.79,226Z" transform="translate(-329.42 -209.59)"/><path class="a" d="M508.21,221.89a19.54,19.54,0,0,1,3.27,1.17,8.53,8.53,0,0,1,2.52,1.77,7.69,7.69,0,0,1,1.65,2.64,10.55,10.55,0,0,1,.6,3.78,9.89,9.89,0,0,1-.93,4.26,9.42,9.42,0,0,1-2.76,3.42,14,14,0,0,1-4.5,2.28,20.51,20.51,0,0,1-6.15.84,31.78,31.78,0,0,1-5.34-.42,29.42,29.42,0,0,1-5.22-1.44,24.13,24.13,0,0,1,2.22-8.28,18.64,18.64,0,0,0,4,1.35,20,20,0,0,0,4.2.45q.72,0,1.5-.06a5.45,5.45,0,0,0,1.38-.27,2.8,2.8,0,0,0,1-.57,1.31,1.31,0,0,0-.39-2.13,10.93,10.93,0,0,0-1.8-.69l-4.08-1.14a11.61,11.61,0,0,1-5.28-3.06,8.08,8.08,0,0,1-2.1-5.88,9.27,9.27,0,0,1,3.66-7.53,12.61,12.61,0,0,1,4.11-2.07,18,18,0,0,1,5.25-.72,28.6,28.6,0,0,1,5,.48,36.12,36.12,0,0,1,5.34,1.38,18.25,18.25,0,0,1-.78,4.11,24.44,24.44,0,0,1-1.5,3.87,26.86,26.86,0,0,0-3.9-1.2,18.32,18.32,0,0,0-4.2-.54q-2.82,0-2.82,1.56a1.12,1.12,0,0,0,.66,1,7.33,7.33,0,0,0,1.5.6Z" transform="translate(-329.42 -209.59)"/></svg>